/* XPM */
static char *_643047343248[] = {
/* columns rows colors chars-per-pixel */
"32 32 223 2 ",
"   c #7C3B04",
".  c #853906",
"X  c #8C4305",
"o  c #86430E",
"O  c #8A4508",
"+  c #994D03",
"@  c #964A08",
"#  c #8B5109",
"$  c #9A5400",
"%  c #8F481E",
"&  c #954019",
"*  c #9A5216",
"=  c #985712",
"-  c #A64402",
";  c #A14902",
":  c #AC4A02",
">  c #A14C0F",
",  c #AF4909",
"<  c #B14C03",
"1  c #AD5203",
"2  c #A3550B",
"3  c #AA5907",
"4  c #B95402",
"5  c #B35D0B",
"6  c #BC5D0C",
"7  c #B55903",
"8  c #A84E16",
"9  c #A65314",
"0  c #976214",
"q  c #AF6701",
"w  c #B4620C",
"e  c #BA690C",
"r  c #BF6906",
"t  c #B86416",
"y  c #BF7917",
"u  c #B5722C",
"i  c #D94E03",
"p  c #C15D0A",
"a  c #C7570B",
"s  c #D85703",
"d  c #C65F14",
"f  c #C26A03",
"g  c #CA6C06",
"h  c #C76209",
"j  c #D46D09",
"k  c #D96707",
"l  c #CD750E",
"z  c #C87A0A",
"x  c #DC750C",
"c  c #D07C0A",
"v  c #C36415",
"b  c #C66B14",
"n  c #C86A10",
"m  c #D36E14",
"M  c #C47316",
"N  c #CA7818",
"B  c #D27113",
"V  c #D97912",
"C  c #E87F09",
"Z  c #F87E03",
"A  c #F87C19",
"S  c #E77012",
"D  c #C15E23",
"F  c #C3712D",
"G  c #C87C24",
"H  c #CD7B47",
"J  c #BF833D",
"K  c #DE8100",
"L  c #CB801B",
"P  c #D98418",
"I  c #E4890A",
"U  c #F4850E",
"Y  c #FC860B",
"T  c #E6950A",
"R  c #EC950B",
"E  c #EF9C0D",
"W  c #EF9906",
"Q  c #F49B0E",
"!  c #E48312",
"~  c #E78B14",
"^  c #E48C1C",
"/  c #EA871C",
"(  c #FE8D15",
")  c #F38B1B",
"_  c #F98E1B",
"`  c #FD8619",
"'  c #E49213",
"]  c #E79F17",
"[  c #ED9D1A",
"{  c #ED9B16",
"}  c #F59112",
"|  c #F39519",
" . c #F39C1C",
".. c #FB9918",
"X. c #F9A509",
"o. c #F9B70D",
"O. c #EEA21B",
"+. c #E9A813",
"@. c #F6A513",
"#. c #FDAC14",
"$. c #F3A31B",
"%. c #FAA51D",
"&. c #F3AC1C",
"*. c #FBAC1C",
"=. c #EEB714",
"-. c #F4B415",
";. c #FEB214",
":. c #FBBB13",
">. c #F5B31C",
",. c #FDB21B",
"<. c #F7B81D",
"1. c #D38927",
"2. c #C58338",
"3. c #D6823A",
"4. c #E68525",
"5. c #F18B21",
"6. c #EA9422",
"7. c #F19C23",
"8. c #FC9C2C",
"9. c #FF9738",
"0. c #EDA92A",
"q. c #F9A423",
"w. c #F3AE22",
"e. c #FCAB22",
"r. c #F9AB2B",
"t. c #F8A525",
"y. c #FAB325",
"u. c #FCBC24",
"i. c #FBB42B",
"p. c #F4B525",
"a. c #EEA73E",
"s. c #FFAE30",
"d. c #F5AE32",
"f. c #F7B836",
"g. c #E8B528",
"h. c #F9C71A",
"j. c #FCC324",
"k. c #FBCC25",
"l. c #FEC22C",
"z. c #FFC82D",
"x. c #FFD627",
"c. c #FDC13D",
"v. c #FFD133",
"b. c #B8884B",
"n. c #CC9A43",
"m. c #CC8A50",
"M. c #CE8D4B",
"N. c #E99D45",
"B. c #D9A34D",
"V. c #F3AE49",
"C. c #F6A452",
"Z. c #EDB15B",
"A. c #F7BC55",
"S. c #D7A86C",
"D. c #D3AD74",
"F. c #D9AB73",
"G. c #EFC04E",
"H. c #F5C35D",
"J. c #F9CA69",
"K. c #F8D462",
"L. c #EAC076",
"P. c #F8C77A",
"I. c #F0DB70",
"U. c #EDD678",
"Y. c #DFBC9C",
"T. c #EEBD82",
"R. c #F4BE97",
"E. c #EFC781",
"W. c #F2CC88",
"Q. c #EFD58B",
"!. c #F9D08E",
"~. c #EBC797",
"^. c #F5CB93",
"/. c #EFD29A",
"(. c #EFE196",
"). c #FFEF99",
"_. c #ECCEA8",
"`. c #EAC7A2",
"'. c #F4DCAA",
"]. c #ECDBBB",
"[. c #F4DBB4",
"{. c #F6DBBB",
"}. c #F0D0A8",
"|. c #EFE6BD",
" X c #F3E5B8",
".X c #5c7327",
"XX c #5c7327",
"oX c #5c7327",
"OX c #5c7327",
"+X c #5c7327",
"@X c #5c7327",
"#X c #5c7327",
"$X c #5c7327",
"%X c #5c7327",
"&X c #5c7327",
"*X c #5c7327",
"=X c #5c7327",
"-X c #5c7327",
";X c #5c7327",
":X c #5c7327",
">X c #5c7327",
",X c #5c7327",
"<X c #5c7327",
"1X c #5c7327",
"2X c #5c7327",
"3X c #5c7327",
"4X c #5c7327",
"5X c #5c7327",
"6X c #5c7327",
"7X c #5c7327",
"8X c #5c7327",
"9X c #5c7327",
"0X c #5c7327",
"qX c #5c7327",
"wX c #5c7327",
"eX c #5c7327",
"rX c #5c7327",
"tX c #5c7327",
"yX c #5c7327",
"uX c #5c7327",
"iX c #5c7327",
"pX c #5c7327",
"aX c #5c7327",
/* pixels */
"uX3XuX0X3XeXiX3X6X<XpXiX&X'.^.!.[.4XtXaX7X<X3X0XpXrXuX9X2X1X7XuX",
"uX1XtXaXrXtXaXeXpXeX|.J.$.I j w b y F.@XaXeXtXaX8X3XeXaXeXrXaX8X",
"uXrXeXiXuX8XrX0XiXU.j.h.-.e # o .   X v R.pXuXrXpX4X1XaXuXeXyXeX",
"tX9XiX6XqXeXrXaXU.o.x.d.n @ X > 8 X % O $ D.aX1X0XyX1XiXuXtX<XtX",
"eXqXiXiXtXyXaX'.T x.f.M 2 * 0 t q M j 6 * + F.aX0X9XyXeX5XtXeXiX",
"rXpXeXuX1XyX;XN.*.q.I g 2 3 i i S A >.$.A 6 + ~.aXeX9XtXeXtXuX5X",
"eXrX9XuX6XyX/.! | P V t 2 k 9.V.` } Z @.<.t.w 3 {.iX9XtXrXuXeXiX",
"aX,XpXrXqXaXC.W &.~ 4., p W.pXpX#XA.o.U 8.i.] , b.yX0XrXeXiXeXaX",
"uXeXeX<XyX+X@.>.O.$.1.- B.pXiX<XpXaXH.=.` %.>.! : _.pX3XiX9X3XeX",
"uXrXpX<XyXOX%.y.$.l.L 1 ^.aXrXyX8X1X,Xc.X._ w.w.h b.2X3XiX8XrXuX",
"tXeXaX<XiX(.*.y.&.v.M w %XpXeXyXeX1XpX[.-.....i.! 3 [.aX6XuXyXuX",
"eXrXiXeXaXI.;.*.%.k.e F rXtXeXuXiXuX;XpXA.;.( w.| 4 S.aXrXeXyXuX",
"tXeXuX<XpXK.#.&.%.k.f H aXtXeXeXrXaX8XpX[.$.}  . .x u iX9XtXeXtX",
"eXeXuXrXpXK.#.&.O.l.f H yXuXpXrX;XiXiXyX<XV.Q _ q.! 3 #XpXeXeXeX",
"0XeXiX<XpXJ.@.y.{ e.g F 3XeXeXrX<XuX1XuXaXL.W ) [ ^ 6 ~.aX<XuXeX",
"eXeXiX<XpXP.Q i.O.) l e -XyX9XeXuXeXpX<XaX_.R } E 7.h S.pX<XiXiX",
"eXuX3XiXyX^.T i.+.5.S 4 .XaXwXeX:X7XiXuXtXOXw._ ..j.c M.aXeX1XuX",
"iXeX<XrXaX[.T e.e.' 5.7 F.aXiX2XpXiXtX2XaX$Xl.R | z.c M.aX>X3XuX",
"iX2X:XiXpX,X7.e.e.O.4.f 2.aX5XrXuXiXeX4XiX%Xz.E  .k.l b.aXeXrXeX",
"iX2XtXiX0XaXZ.X.*.e.[ B 4 ].qX7XeXuXuXrXaXoX<.) | j.n 2.aXtXeX9X",
"uXrXtXeXeXaX}.X.<.%.>.4.4 n.aXeXtXuXuXrXpX XT A ' O.6 m.aXeXeXeX",
"uXeXeXqXrXiX+X0.,.w.w.7.b 6 }.pXtXeX<X<XpXQ.C ` | P , D.aXiXeXeX",
"rXrXuX9XiXrXqXE.*.u.e.;.P , G oXeXiX2XyX3XA.U %.6.t 1 ~.uXeXiXrX",
"eXrXuX2XiXeXaXXXr.-.,.*.*.N ; 3.<XiXaXiXoX+.Y -.l 8 e XXqX8XuXrX",
"uXeXeXeXeXeXpXrXP.g.:.e.>.$.d + m R.oX).d.s U y * ; M.yXtXrX0XrX",
"yXeXpXeXeXrXeXaX1XA.%.h.>.*.O.w 8 , x k i a 9 & 2 : Y.aX1XeXpXrX",
"uXeXeXrXeXeXeXpXaX-Xf.e.s.-.#.O.5 = * > = X . # - 2.rXyXrX9XiXrX",
"yXeXuXeXuXeXeXrX<XpX|.h.*.i.u.r.t.l + # . o # 5 t ].aX<XuXeXrXtX",
"eXuXeXrXeXuXeXrXpXrXtX#Xc.o.>.-.-.r./ B p v p 1 ~.qX,XeXqX6XrXeX",
"eXeXeXuXrXtXeXpX5XpXtXuX-XJ.-.<.,.:.u.r.' K 1._.aXuX<XiXpXuXrXpX",
"tXiXeXeXeXeXrXtXrXyX2X2X2XiXXXP.f.i.&.w.a.T.%XaXuXeXaXuXrXpXeXeX",
"eXeXeXeXuXeXeXeXuX>XeXiXiXpXpXiXuX@XOX-XiXpX9X<X1XeXpX1X5XtXiXtX"
};
