/* XPM */
static char *_643048279486[] = {
/* columns rows colors chars-per-pixel */
"32 32 114 2 ",
"   c #110E0B",
".  c #16120E",
"X  c #1B140C",
"o  c #1C180E",
"O  c #1B1610",
"+  c #290E0E",
"@  c #25190D",
"#  c #291D0F",
"$  c #2C0F10",
"%  c #201A12",
"&  c #291E10",
"*  c #201E1A",
"=  c #351212",
"-  c #3E1515",
";  c #361C12",
":  c #262011",
">  c #2C2212",
",  c #2E2815",
"<  c #23231F",
"1  c #2E251B",
"2  c #2C2B1C",
"3  c #3E2114",
"4  c #372815",
"5  c #3C2A15",
"6  c #30271C",
"7  c #342A1E",
"8  c #3B2D1D",
"9  c #3D351D",
"0  c #1E252C",
"q  c #1D2A36",
"w  c #1E2E3D",
"e  c #2D2B27",
"r  c #22282D",
"t  c #2A2A29",
"y  c #342C23",
"u  c #382F23",
"i  c #312E2A",
"p  c #3B3124",
"a  c #33312E",
"s  c #242D35",
"d  c #242F39",
"f  c #2F3132",
"g  c #27323A",
"h  c #2E3439",
"j  c #2C393D",
"k  c #343534",
"l  c #383734",
"z  c #3B3A36",
"x  c #343738",
"c  c #353A3C",
"v  c #3C3B3A",
"b  c #431616",
"n  c #461C17",
"m  c #4A1817",
"M  c #461818",
"N  c #4C1A18",
"B  c #551C1B",
"V  c #5A1D1D",
"C  c #631F1F",
"Z  c #472217",
"A  c #492317",
"S  c #472A17",
"D  c #472618",
"F  c #4F2319",
"G  c #442E19",
"H  c #4B2C18",
"J  c #45311C",
"K  c #4A321B",
"L  c #41391F",
"P  c #53381B",
"I  c #5A3E1F",
"U  c #463522",
"Y  c #443728",
"T  c #563D21",
"R  c #652121",
"E  c #6D2322",
"W  c #722424",
"Q  c #7D2726",
"!  c #3F4231",
"~  c #654523",
"^  c #6B4823",
"/  c #213243",
"(  c #2E3943",
")  c #223649",
"_  c #25394C",
"`  c #2E3E49",
"'  c #373D41",
"]  c #263C51",
"[  c #283F55",
"{  c #354244",
"}  c #2A4156",
"|  c #2C455B",
" . c #2E485F",
".. c #2F4962",
"X. c #314C65",
"o. c #334F69",
"O. c #35526D",
"+. c #365572",
"@. c #385672",
"#. c #395876",
"$. c #3B5C7B",
"%. c #454545",
"&. c #484746",
"*. c #5E5D5B",
"=. c #706F6E",
"-. c #7A7A7A",
";. c #3B5F82",
":. c #3D6184",
">. c #406181",
",. c #868686",
"<. c #8E8E8E",
"1. c #8F9090",
"2. c #909090",
"3. c #5c7327",
/* pixels */
"3.3.3.3.3.3.3.3.3.3.3.3.3.3.3.b N 3.3.3.3.3.3.3.3.3.3.3.3.3.3.3.",
"3.3.3.3.3.3.3.3.3.3.3.3.3.3.+ V E = 3.3.3.3.3.3.3.3.3.3.3.3.3.3.",
"3.3.3.3.3.3.3.3.3.3.3.3.3.B V V R B R 3.3.3.3.3.3.3.3.3.3.3.3.3.",
"3.3.3.3.3.3.3.3.3.3.3.3.- E V M B M W - N 3.3.3.3.3.3.3.3.3.3.3.",
"3.3.3.3.3.3.3.3.3.3.3.R V B V N N B B N Q M 3.3.3.3.3.3.3.3.3.3.",
"3.3.3.3.3.3.3.3.3.B b R B b F P G A B N E M B - 3.3.3.3.3.3.3.3.",
"3.3.3.3.3.3.3.3.b Q b M M H J r r 7 S N C M R N b M 3.3.3.3.3.3.",
"3.3.3.3.3.3.B V b C b Z H y q g f w t G A B V - B B 3.3.3.3.3.3.",
"3.3.3.3.3.+ C E = N H 8 r _ g K T e ] d 8 S N B B b = N 3.3.3.3.",
"3.3.3.3.E b M m 3 J e /  .X.x I ~ Y  ..._ t G A V B - E 3.3.3.3.",
"3.3.3.m W b n H 8 s } X.o.X.s P ^ y  .X.X.} g 8 D N B R M 3.3.3.",
"3.3.3.- N D G t _ ..X.X. .X./ J ~ r  .X...X. ._ e G A B M 3.3.3.",
"3.3.3.$ ; 5 3.} O.X.( l z z l U T a z z z k ` X.| 0 4 ; = 3.3.3.",
"3.3.3.3.3.3.3.O.$.o.a p p p u 8 G y p p p p f +.#.) 3.3.3.3.3.3.",
"3.3.3.3.3.3.3.O.>.#.a 6 . 3.3.> 3 3.3.3.. 7 x ;.:.[ 3.3.3.3.3.3.",
"3.3.3.3.3.3.3.O.$.$.l 1 3.3.3.@ @ 3.3.3.3.1 c :.:.[ 3.3.3.3.3.3.",
"3.3.3.3.3.3.3.@.$.$.k 1 3.3.3.3.3.3.3.3.3.6 ' :.:.] 3.3.3.3.3.3.",
"3.3.3.3.3.3.3.@.$.$.k 1 3.3.3.3.3.3.3.3.3.1 ' :.:.] 3.3.3.3.3.3.",
"3.3.3.3.3.3.3.O.$.#.a 1 3.3.3.3.3.3.3.3.3.1 c ;.;.] 3.3.3.3.3.3.",
"3.3.3.3.3.3.3.O.$.O.a 1 3.3.3.3.3.3.3.3.3.6 c $.;._ 3.3.3.3.3.3.",
"3.3.3.3.3.3.3.X.$.O.a 1 3.3.3.3.3.3.3.3.3.1 x $.$._ 3.3.3.3.3.3.",
"3.3.3.3.3.3.3.X.#.O.a 1 3.3.3.3.3.3.3.3.3.1 x #.#._ 3.3.3.3.3.3.",
"3.3.3.3.3.3.3.X.@.X.a 1 3.3.3.3.3.3.3.3.3.1 x +.+.) 3.3.3.3.3.3.",
"3.3.3.3.3.3.3. .+...i 1 3.3.3.3.3.3.3.3.3.6 x o.O./ 3.3.3.3.3.3.",
"3.3.3.3.3.3.3. .O. .y 1 3.3.3.3.3.3.3.3.3.1 x X.O./ 3.3.3.3.3.3.",
"3.3.3.3.3.3.3.| o.| a 1 3.3.3.3.3.3.3.3.3.1 k ..X.w 3.3.3.3.3.3.",
"3.3.3.3.3.3.3.} O.| e 1 3.3.3.3.3.3.3.3.3.1 f ..X.d 3.3.3.3.3.3.",
"3.3.3.3.3.3.7 { ' g * O 3.3.3.3.3.3.3.3.3.o < ( { ! 3.3.3.3.3.3.",
"3.3.3.3.3.3.: 8 , : o   t 3.3.3.3.3.3.3.t   o 6 9 L 3.3.3.3.3.3.",
"3.3.3.3.3.3.@ 5 : : e v -.,.,.,.,.,.,.,.-.&.i & 4 5 3.3.3.3.3.3.",
"3.3.3.3.3.3.X # X % =.,.2.2.2.2.2.2.2.2.<.2.*.O & > 3.3.3.3.3.3.",
"3.3.3.3.3.3.3.3.3.3.v %.%.%.%.%.%.%.%.%.%.&.k 3.3.3.3.3.3.3.3.3."
};
