/* XPM */
static char *_643049309726[] = {
/* columns rows colors chars-per-pixel */
"32 32 213 2 ",
"   c #5c7327",
".  c #5c7327",
"X  c #5c7327",
"o  c #5c7327",
"O  c #5c7327",
"+  c #5c7327",
"@  c #5c7327",
"#  c #5c7327",
"$  c #5c7327",
"%  c #5c7327",
"&  c #5c7327",
"*  c #5c7327",
"=  c #5c7327",
"-  c #5c7327",
";  c #5c7327",
":  c #5c7327",
">  c #5c7327",
",  c #5c7327",
"<  c #5c7327",
"1  c #5c7327",
"2  c #5c7327",
"3  c #5c7327",
"4  c #5c7327",
"5  c #5c7327",
"6  c #5c7327",
"7  c #5c7327",
"8  c #5c7327",
"9  c #5c7327",
"0  c #5c7327",
"q  c #5c7327",
"w  c #5c7327",
"e  c #5c7327",
"r  c #5c7327",
"t  c #5c7327",
"y  c #5c7327",
"u  c #5c7327",
"i  c #5c7327",
"p  c #5c7327",
"a  c #5c7327",
"s  c #5c7327",
"d  c #5c7327",
"f  c #5c7327",
"g  c #5c7327",
"h  c #5c7327",
"j  c #5c7327",
"k  c #5c7327",
"l  c #5c7327",
"z  c #5c7327",
"x  c #5c7327",
"c  c #5c7327",
"v  c #5c7327",
"b  c #5c7327",
"n  c #5c7327",
"m  c #5c7327",
"M  c #5c7327",
"N  c #5c7327",
"B  c #5c7327",
"V  c #5c7327",
"C  c #5c7327",
"Z  c #5c7327",
"A  c #5c7327",
"S  c #5c7327",
"D  c #5c7327",
"F  c #5c7327",
"G  c #5c7327",
"H  c #5c7327",
"J  c #5c7327",
"K  c #5c7327",
"L  c #5c7327",
"P  c #5c7327",
"I  c #5c7327",
"U  c #5c7327",
"Y  c #5c7327",
"T  c #5c7327",
"R  c #5c7327",
"E  c #5c7327",
"W  c #5c7327",
"Q  c #5c7327",
"!  c #5c7327",
"~  c #5c7327",
"^  c #5c7327",
"/  c #5c7327",
"(  c #5c7327",
")  c #5c7327",
"_  c #5c7327",
"`  c #5c7327",
"'  c #5c7327",
"]  c #5c7327",
"[  c #5c7327",
"{  c #5c7327",
"}  c #5c7327",
"|  c #5c7327",
" . c #5c7327",
".. c #5c7327",
"X. c #5c7327",
"o. c #5c7327",
"O. c #5c7327",
"+. c #5c7327",
"@. c #5c7327",
"#. c #5c7327",
"$. c #5c7327",
"%. c #5c7327",
"&. c #5c7327",
"*. c #5c7327",
"=. c #5c7327",
"-. c #5c7327",
";. c #5c7327",
":. c #5c7327",
">. c #5c7327",
",. c #5c7327",
"<. c #5c7327",
"1. c #5c7327",
"2. c #5c7327",
"3. c #5c7327",
"4. c #5c7327",
"5. c #5c7327",
"6. c #5c7327",
"7. c #5c7327",
"8. c #5c7327",
"9. c #5c7327",
"0. c #5c7327",
"q. c #5c7327",
"w. c #5c7327",
"e. c #5c7327",
"r. c #5c7327",
"t. c #5c7327",
"y. c #5c7327",
"u. c #5c7327",
"i. c #5c7327",
"p. c #5c7327",
"a. c #5c7327",
"s. c #5c7327",
"d. c #5c7327",
"f. c #5c7327",
"g. c #5c7327",
"h. c #5c7327",
"j. c #5c7327",
"k. c #5c7327",
"l. c #5c7327",
"z. c #5c7327",
"x. c #5c7327",
"c. c #5c7327",
"v. c #5c7327",
"b. c #5c7327",
"n. c #5c7327",
"m. c #5c7327",
"M. c #5c7327",
"N. c #5c7327",
"B. c #5c7327",
"V. c #5c7327",
"C. c #5c7327",
"Z. c #5c7327",
"A. c #5c7327",
"S. c #5c7327",
"D. c #5c7327",
"F. c #5c7327",
"G. c #5c7327",
"H. c #5c7327",
"J. c #5c7327",
"K. c #5c7327",
"L. c #5c7327",
"P. c #5c7327",
"I. c #5c7327",
"U. c #5c7327",
"Y. c #5c7327",
"T. c #5c7327",
"R. c #5c7327",
"E. c #5c7327",
"W. c #5c7327",
"Q. c #5c7327",
"!. c #5c7327",
"~. c #5c7327",
"^. c #5c7327",
"/. c #5c7327",
"(. c #5c7327",
"). c #5c7327",
"_. c #5c7327",
"`. c #5c7327",
"'. c #5c7327",
"]. c #5c7327",
"[. c #5c7327",
"{. c #5c7327",
"}. c #5c7327",
"|. c #5c7327",
" X c #5c7327",
".X c #5c7327",
"XX c #5c7327",
"oX c #5c7327",
"OX c #5c7327",
"+X c #5c7327",
"@X c #5c7327",
"#X c #5c7327",
"$X c #5c7327",
"%X c #5c7327",
"&X c #5c7327",
"*X c #5c7327",
"=X c #5c7327",
"-X c #5c7327",
";X c #5c7327",
":X c #5c7327",
">X c #5c7327",
",X c #5c7327",
"<X c #5c7327",
"1X c #5c7327",
"2X c #5c7327",
"3X c #5c7327",
"4X c #5c7327",
"5X c #5c7327",
"6X c #5c7327",
"7X c #5c7327",
"8X c #5c7327",
"9X c #5c7327",
"0X c #5c7327",
/* pixels */
"V Z D.o.; R i.! ^ N.m h.j D a.I.v b r Q.).R.h M % 6 M o.g 0 N j.",
"a K a._ e 2 ! D h R ^ V V N ( D.A v./ h g.n.' j.h m J _ T T / } ",
"g ` Z s./ r ~ / ! E r K Q.z.$ e x j.c.i.N N. .x.J h b n 7 l.H. .",
"I _ F A ^ j 9.J., / / i.u.U | G b.q N k.A./.^ F , u.l J U ^ ).l.",
"W.) + F o.H >XXXU s.^.y - ^ E Z k v z.p.t.r.N h M ).*.$ ).u.x @.",
"G.0.>.3 ` ,.c...T a.` h ` ! w , ! # ; k.h.r.M C J c.) & T ^ ~ z.",
") o._ >.4 l./ R 9 J.3 6 l.K Z % J H , v i.s.l _ I.& 4 G ( ! z.M.",
"A ` 9._.G c.l.s.V ..! k x.} - Y n ~ j ! i.c.b p.G.Z J ~ o.0 ` Q.",
"I.U C C.V.V Q >X0..XS T u.c.a ^ J.H.) j / / J.0 R ^.x., l.S T !.",
">.G > Z l.A.A.<.7.[.I A > u.` ) G.x.M N Z. .( , n c.c.C A W (.L ",
"4 D <.l.: c.Z u.x.G Z ^ Y S.o.G.S : Z 8 N Z.J l n q ! N.l.N.! g ",
"a s.z.2 ` } s T ^ } I Y J.W ,._ n s J ( z.B n.s.v 0 b j.! B.m w.",
"L.!.6XD V T.7., l i.9.! J ; o W D.T L.K.V X ] J 8 i.l c.9.b N.s.",
"1.#.:.S.Z 4XI & ` 4._ J j ` S a s.G V s.4.T l # w ,.k R } j h _ ",
"7.G R L XX_.;   XX[._ / ) ` A T 1.u C ^.x.A ) Y K.[.G 4 k.N.T T ",
"I K.G ( ) T p E.k S.>XD.0 4 a.` S.J , T.~ c ` ! T l.k ! c.J ) ! ",
"! 0.:XL., R ].w.<.I.W G ! c.V ^ / A H G.).M ~ z.x.7.h M /.C A ) ",
"o.C 5.Z Y _ _ 1.U.G I (.3 J.S.s.G.T A N.^ h z.O.1Xf ; Y N ] ^ k ",
"F.( &.G XXq.c.^ <.W K.1 % d.Z F.e T z.h.a.c.c./.$X9X[.` q f.p y ",
"F.a.J.<.;.-.~.W F >XG o U.4.Z d.Z k z.%XK.~ ! O.[ -X>Xl.^ j g D ",
"D V x.I.F E s.o.~ W.{.;.OXF./ ! ; / j.C.q.D ! ! C . }.J.] z #X| ",
"a 1 S.s.L.! U.<X`.Y.*.( ,X0.` I ) 7.O.b.P ` ! H i L L.c.h.#Xg.o.",
">.5.G W /.9.4.J h.J G C U.o.Z p F S / t ..U.F u ~ K.H.P.c.^ N l.",
"U :.>._ G.2 C &X@.P Y.` OX7XI ~ _ }.5XV U.1.A y _ G.) o./ Z ) / ",
",.F.~ 7.L.d F ^.W.%.e.G $.K.` L L c.U < D ` s.C E T ^ ^ - b a.n ",
"`.H.L.a 5 J h.+XoXF.L 7.A V T S !.@Xf @ 5 ( x.h Z q.V u k ^ ^ N ",
"l.s.# Z ; J.Q A.r ;.G K Q._ : h._.2.2 E F J E.H.0.V ~ z.F.A 9.K.",
"1 e Q ` Z I.Q e Z ( q.C s.K.O.W.2.; V I.! 9.0XY.y k l.Y.+ C u ` ",
"L 4.F.( ( I.1.G 9.L S ` _ 1.V ].8X,.'.{.~ ! &X) # * ! }.y j ! H.",
"o.Q 2 j x.L.S.2XU d 0.@Xs.,.( G ;.P.( A c.R.7.H N.a ` %.9.G./ / ",
"D E ( 7.7.G.(.) U a 1.H.) S S.2.I H.` / Y.$X~ j i.W ! ; S W.*X) ",
"Y.G '.I ,.L.[.S V U ..7.|.F.9.U.I 2 ^ l.C |.XX` ) s.( < / c.+.K "
};
