/* XPM */
static char *_9662e1129ee4106c6cddabe038b7e3ea8atxDXSUCvAlsxJ[] = {
/* columns rows colors chars-per-pixel */
"32 32 184 2 ",
"   c #5c7327",
".  c #020102",
"X  c #0C0707",
"o  c #00010B",
"O  c #0E0E0F",
"+  c #0A0709",
"@  c #1D0000",
"#  c #131313",
"$  c #1C1D1D",
"%  c #171818",
"&  c #090A1A",
"*  c #370001",
"=  c #201913",
"-  c #3A310D",
";  c #080A2D",
":  c #040733",
">  c #1C1D33",
",  c #222322",
"<  c #2C2D2C",
"1  c #333434",
"2  c #35393A",
"3  c #3A3B3B",
"4  c #490401",
"5  c #521314",
"6  c #4E3019",
"7  c #4B3129",
"8  c #483C33",
"9  c #672122",
"0  c #6F3E3E",
"q  c #643334",
"w  c #663A2F",
"e  c #504511",
"r  c #544628",
"t  c #714D26",
"y  c #77532B",
"u  c #080D4B",
"i  c #080C44",
"p  c #0B0E53",
"a  c #060B5E",
"s  c #090E5E",
"d  c #070C53",
"f  c #0B135B",
"g  c #1D1945",
"h  c #32334B",
"j  c #333455",
"k  c #070D61",
"l  c #080E63",
"z  c #070C69",
"x  c #091165",
"c  c #0A126B",
"v  c #0D157B",
"b  c #0E1A7B",
"n  c #0C1575",
"m  c #463F40",
"M  c #434445",
"N  c #45454A",
"B  c #545454",
"V  c #5B5C5C",
"C  c #575455",
"Z  c #714345",
"A  c #634B51",
"S  c #665C59",
"D  c #735350",
"F  c #4A4C75",
"G  c #5D7366",
"H  c #636363",
"J  c #6D6D6D",
"K  c #7D6B72",
"L  c #727272",
"P  c #7D7E7E",
"I  c #980606",
"U  c #9A1E1E",
"Y  c #880404",
"T  c #B31208",
"R  c #962A0D",
"E  c #C50808",
"W  c #C6160A",
"Q  c #C81D1D",
"!  c #804F28",
"~  c #81522A",
"^  c #8C5A31",
"/  c #AE743A",
"(  c #B1753A",
")  c #9C4A4B",
"_  c #AE5152",
"`  c #A45A5B",
"'  c #887459",
"]  c #A07C42",
"[  c #A87546",
"{  c #916666",
"}  c #A87977",
"|  c #D07D7A",
" . c #9D9027",
".. c #A8875B",
"X. c #9A8C72",
"o. c #928467",
"O. c #AD9560",
"+. c #A58564",
"@. c #8AA375",
"#. c #C0904B",
"$. c #C89B52",
"%. c #D49D51",
"&. c #DCAC59",
"*. c #D7A859",
"=. c #E0AC56",
"-. c #C4996B",
";. c #E5B564",
":. c #F3C063",
">. c #0E1485",
",. c #0E1787",
"<. c #111A84",
"1. c #10178E",
"2. c #0F1594",
"3. c #131A97",
"4. c #14218F",
"5. c #16249D",
"6. c #151DA6",
"7. c #171DB4",
"8. c #1825A6",
"9. c #1A25B5",
"0. c #1B26B9",
"q. c #1A24B9",
"w. c #252DB9",
"e. c #353AB4",
"r. c #3541B2",
"t. c #4B478B",
"y. c #534192",
"u. c #585C95",
"i. c #7A7B84",
"p. c #5955A6",
"a. c #5D63AD",
"s. c #1B23C4",
"d. c #1D28C6",
"f. c #1C25CB",
"g. c #1E29CE",
"h. c #1D26D2",
"j. c #1F29D4",
"k. c #1F26DC",
"l. c #313DC2",
"z. c #212ADD",
"x. c #3639DD",
"c. c #212AE2",
"v. c #232AEE",
"b. c #242BF7",
"n. c #262DFE",
"m. c #2938F3",
"M. c #4548CB",
"N. c #5955C3",
"B. c #5A64C5",
"V. c #727DE0",
"C. c #837E9E",
"Z. c #608086",
"A. c #828383",
"S. c #8C8B8B",
"D. c #8F8C85",
"F. c #908486",
"G. c #939394",
"H. c #9B9B9C",
"J. c #BB9D80",
"K. c #A28E9F",
"L. c #AE9898",
"P. c #B7BD96",
"I. c #A6A6A6",
"U. c #ABABAC",
"Y. c #A9A7A3",
"T. c #B1B1B2",
"R. c #BBBAB9",
"E. c #C78B84",
"W. c #DFA49E",
"Q. c #E1A59F",
"!. c #E5B8B8",
"~. c #B6C1B3",
"^. c #F2C285",
"/. c #9CA5E4",
"(. c #BFC3DE",
"). c #C3C3C3",
"_. c #D9D9D9",
"`. c #E1EFDB",
"'. c #C8CFF8",
"]. c #DADCEA",
"[. c #E7E7E7",
"{. c white",
"}. c gray94",
"|. c #F1EEF3",
/* pixels */
"                    5.5.5.5.5.  5.5.                            ",
"              5.8.0.b.b.b.b.b.1.c.d.f                           ",
"          1.0.z.b.j.d.d.z.n.b.3.x.p.s                           ",
"        l <.0.0.6.v b d.c.n.g.w.K.+.t.u.z 7.6.x                 ",
"              c c 7.k.n.n.n.z.w.N.M.e.r.h.v.3.                  ",
"              v f.n.n.n.n.n.g.d.r.l.s.g.n.k.n                   ",
"            v g.n.n.n.n.n.n.v.B.].(.M.n.b.2.                    ",
"          x 8.n.n.b.h.s.c.n.m.'.{.{./.c.b.>.                    ",
"          x 0.z.0.6.,.7.z.z.V.|.{.`.Z.0.b.>.                    ",
"          x 4.<.l c s.n.n.w.K J.}.~.G a.1.                      ",
"          k x k l s.b.v.v.y.O.&.^.P.@.S.p                       ",
"          a   a b g.z.<.l A =.%.;.*.[ [ 7 .                     ",
"              a b b f : . X y / $.$.*.(                         ",
"              a u ; o     / 6 t / /             M J             ",
"              a :       O.%.^ D ;.&.          P S.S.I.          ",
"                      o.O.+.8 g -.*.y     O , L H H.T.<         ",
"                    H.Y.D.).A.h t.[ ~   V 3 1 V G._.S.$         ",
"                  J T.I.T.V T.U.i.8 y ' M C V H S.A.B           ",
"                    J B A.G._._.}.S.r X.3 H J H H 1             ",
"                      3 H U.).}.{.U.= S B = % % #               ",
"                        % N A.Y.G.N                             ",
"                          & N V > i                             ",
"                        ; >.u   d d                             ",
"                      . s 7.u o a >.a                           ",
"                    , 3 ; p   O F a.j                           ",
"                  X C ).D.1     m D.V                           ",
"                . * 0 R.Z.=   @ 5 ! D 9                         ",
"                - w L.!.{   . 4 U C.` E I                       ",
"              X  ...| Q I * o 5 0 G.} Q E I Y                   ",
"              . e R W W T 4 . < 1 N V { _ _ ) q                 ",
"                X } Q.Q.E.7         # < 2 2 1 ,                 ",
"                  3 M M 2 $                                     "
};
