/* XPM */
static char *_f3755f425914fe6e23c245833cb9375jp0FKth52iDNzxoL[] = {
/* columns rows colors chars-per-pixel */
"32 32 221 2 ",
"   c #472B1F",
".  c #6C281F",
"X  c #502927",
"o  c #5C2D25",
"O  c #5E2D28",
"+  c #4E3125",
"@  c #553226",
"#  c #54342A",
"$  c #5B342C",
"%  c #56392D",
"&  c #5D362A",
"*  c #5E3632",
"=  c #513831",
"-  c #5C3B32",
";  c #5B3D3B",
":  c #622D26",
">  c #6C2B22",
",  c #612F28",
"<  c #6B2E29",
"1  c #7C2E2B",
"2  c #6B3223",
"3  c #64332B",
"4  c #6C332C",
"5  c #633B2C",
"6  c #6C3B2E",
"7  c #643525",
"8  c #73352C",
"9  c #7C352F",
"0  c #733A2D",
"q  c #793B2C",
"w  c #763322",
"e  c #742F32",
"r  c #663632",
"t  c #6C3632",
"y  c #633A34",
"u  c #6B3C35",
"i  c #643D39",
"p  c #6A3D39",
"a  c #743532",
"s  c #7B3433",
"d  c #743B34",
"f  c #7C3C34",
"g  c #723E3A",
"h  c #7B3C39",
"j  c #7E3639",
"k  c #5F4337",
"l  c #75422F",
"z  c #644235",
"x  c #62433D",
"c  c #6D443D",
"v  c #694632",
"b  c #754335",
"n  c #7E4134",
"m  c #74423B",
"M  c #7D423C",
"N  c #794A3B",
"B  c #773F40",
"V  c #7F3F40",
"C  c #6D4A44",
"Z  c #734741",
"A  c #7A4441",
"S  c #7C4944",
"D  c #7A4A48",
"F  c #75544C",
"G  c #7C524D",
"H  c #76564A",
"J  c #7C5C54",
"K  c #7A5250",
"L  c #7D6155",
"P  c #7F6B62",
"I  c #81332F",
"U  c #843633",
"Y  c #823D34",
"T  c #8A3A36",
"R  c #843D3B",
"E  c #8A3C3B",
"W  c #834234",
"Q  c #84433B",
"!  c #8B443E",
"~  c #85483B",
"^  c #8C493E",
"/  c #93433D",
"(  c #863F43",
")  c #854342",
"_  c #8E4443",
"`  c #854B43",
"'  c #8B4B43",
"]  c #8C4648",
"[  c #8C4D49",
"{  c #844D48",
"}  c #934142",
"|  c #934C45",
" . c #954C48",
".. c #9B4C4D",
"X. c #984541",
"o. c #855144",
"O. c #83534D",
"+. c #8B524E",
"@. c #865A4D",
"#. c #8B5A4C",
"$. c #885246",
"%. c #905347",
"&. c #93554C",
"*. c #9A544D",
"=. c #94584D",
"-. c #995A4B",
";. c #835753",
":. c #8A5551",
">. c #845B54",
",. c #8C5B54",
"<. c #855D5C",
"1. c #8D5E5A",
"2. c #9D5551",
"3. c #955C54",
"4. c #9C5C54",
"5. c #925C5A",
"6. c #9B5E5A",
"7. c #A5504B",
"8. c #A15652",
"9. c #A25B54",
"0. c #A45E5B",
"q. c #AA5D5A",
"w. c #A95B57",
"e. c #B05B54",
"r. c #8D654F",
"t. c #826155",
"y. c #8B6155",
"u. c #836856",
"i. c #85635A",
"p. c #8C625B",
"a. c #896A5B",
"s. c #9E6256",
"d. c #92635C",
"f. c #9C645C",
"g. c #9E6A5E",
"h. c #976658",
"j. c #A46355",
"k. c #A96757",
"l. c #A4645B",
"z. c #AB645D",
"x. c #A5695E",
"c. c #AC6B5D",
"v. c #B2645C",
"b. c #B8665B",
"n. c #A0715D",
"m. c #9F5F60",
"M. c #8C6A62",
"N. c #8B6969",
"B. c #966562",
"V. c #9A6762",
"C. c #946B64",
"Z. c #9C6A63",
"A. c #946D6A",
"S. c #9D6E6A",
"D. c #8E7065",
"F. c #927363",
"G. c #997063",
"H. c #93746C",
"J. c #9C726C",
"K. c #947A6D",
"L. c #967474",
"P. c #9C7A75",
"I. c #997370",
"U. c #A26563",
"Y. c #A96462",
"T. c #A46B63",
"R. c #AA6B64",
"E. c #A36D69",
"W. c #A96C6B",
"Q. c #B26461",
"!. c #B26B65",
"~. c #B26A6A",
"^. c #BA6C69",
"/. c #B86764",
"(. c #A27264",
"). c #AA7365",
"_. c #A3736C",
"`. c #AC736C",
"'. c #AC7A6E",
"]. c #A1796F",
"[. c #B27265",
"{. c #B3746B",
"}. c #BD756E",
"|. c #BA786C",
" X c #B36E70",
".X c #A47570",
"XX c #AB7472",
"oX c #A47A74",
"OX c #AB7A75",
"+X c #AB7B79",
"@X c #B37671",
"#X c #B87071",
"$X c #B27972",
"%X c #B37B73",
"&X c #BB7A73",
"*X c #B37E7A",
"=X c #BB797A",
"-X c #C06F6E",
";X c #C26D66",
":X c #C4776D",
">X c #CA7D7B",
",X c #AB897D",
"<X c #AF847B",
"1X c #B2837B",
"2X c #BD827A",
"3X c #BC8A7D",
"4X c #B38375",
"5X c #C2857E",
"6X c #C68A7E",
"7X c #CB807D",
"8X c #AC8E86",
"9X c #B98D88",
"0X c #B98986",
"qX c #AC9283",
"wX c #B7948B",
"eX c #C58382",
"rX c #C28A84",
"tX c #CE8B85",
"yX c #D28E81",
"uX c #C49587",
"iX c #C29C91",
/* pixels */
"Q 8 E 1 Q.E s ' N v N (.0 f U U ` g S g r O.;.y Z G D p 1.B.A g ",
"3.z.z.*.>Xq.2.l.x.r.,.4X3.s.8.8.f.V._.d.d.E._.B.B.5.V.5.XXOX5.E.",
"' 6XR.4.}.z.w.j.=Xg.d.`.x.l.w.w.' S.B.O.,.1.,.d.+X{ B.B.V.V.5.0X",
"7 3X=.Q } | _ Q x.` 8 b ~ Y s s t _.:.r g u u O.E., d g a 4 8 #X",
"v 3X#.~ Q | | / !.+.f M ' ) R ) 3 S.{ O r , 6 S T.7 d M d 4 q @X",
"r.uXc.n.j.Q.Q.v.>X~.Y.@XY.U.Y.W.d.9XoXS._.d.`.$X$Xs.l.c.l.4.l.6X",
"r.n.s.j.9.z.q.q.0.2.l.=X:.:.O.1.1.p.1.1X*X3.T.T.x.&Xl.-.j.s.k.c.",
"l 7 l W Y T U T U s [ $X4 3 o $ i X $ +XZ.4 M n Q [.~ . q q ~ 0 ",
"l Y W ^ T T T U / . [ $Xo v # # * i r J._.4 ' f q |.W Y ~ 2 ~ q ",
"c.k.[.!.&X!.R./.!.Y.&X3Xy.F.u.K.H.I.N.9X1Xf.c.9.k.6X[.z.[.{.x.T.",
"q.*.9.^ }.z. .0.w.{.~.f.h.a.u.qXF J K B.1.{.R.j.w.k.c.=.s.3Xo.d.",
"! s R > ).&.4 ~ 9 ! W 4 l v v F.# ; * y o l.~ f | ^ %.Y $.*X& u ",
"R s h , .X#.5 M W Q Q ^ ~ q ~ G.- ; i p 3 `.' W ' Y Q h O..Xr * ",
"W.%XE.p.wX<Xh.(.x.z.z.:Xv.j.[.4X<.J >.1.:.rX!.w.!.z.%XU.OX9XA.L.",
"m.+X>.F D.J L #.s.&Xq.;Xe.b.b.k.wXP.A.A.f.T.9.*.2.%.eX:.<.N.P L.",
"D A.* + %   z v b {./ X.T 7./ T .XF c m A d f f Y a 0Xi B B ; N.",
"K A.X C + @ * 5 p V. .] ( ..( ( J.F $ u A h ` f h g XXO.# C = P ",
"oX9X<.I.A.A.M.N.I.0XE.E.m. X^.m.rX].d.V.V.XXW.E.E.B.9X].M.A.M.8X",
"S.+XB.1.P.oXi.i.M.C.1.1.5. X*Xm.R.0.6.4.{ .Xd.y.B.C.S.5.5.B.;.S.",
"B B D $ ;.G @ # # # # * $ ;.S.a _ /  .) < E.Z m p Z p 3 h a e e ",
") B +.t 1.G $ - % - x k % J K.6 E T } E > T.f 5 6 A g h ( ( ] E ",
" X6.W.m.OXJ.>.i.N.i.M.u.L H.qXy.~./.^.!.0.tXR.6.U.U.U.R.Y.W.#X0.",
"eX4.5.m.W.h.d.t.,Xt.L L i.i.,XJ.3.2.9.j.9.v.w...7Xz.Y.Y.j.{.XX` ",
"=XR a [ ` N S u 1Xc $ y m $ J >.0 6 q Q R I E U #XU R ) h V.d.O ",
"~.f ~ Q ` M S 6 `.S u , u t 5.$.b b l N W 9 9 1 ^. .f M d d.#.& ",
"5X4.T.x.R.T.W.l.eXU.U.T.m.U.=X Xg.(.{.x.T.x.x.x.5XR.6.'.V.1X1Xh.",
"l.%.j.3.x.x.l.T.R.&.Y.eX0.Y.~.Y.s.h.2X#.@.@.#.@.d.y.G OXV.f.W.5.",
"2 2 q 0 f f 8 W s > ) ~.s ( j j ! ' $X3 7 & @ @ - z 5 h.O.h { ' ",
"l W ~ W W ~ q Q h 0 [ W.a [ h ) b M `.3 3 @ @ % + @ O <.D g ( ] ",
"k.c.[.c.l.{.z.l.T.l.{.3X6.*X5.W.T.T.uX(..XC.A.].S.A.A.1XOX%XS.W.",
"c.k.k.k.-.|.R.s.x.g.T.g.p.1X1.a.t.;.C.(.XXB.6.U.W.V.S.V.E.1X;.;.",
"W w q W . %.%.l b b m 5 u i.& - z - r :.:.t e j ( j V a D I.* i "
};
